<?xml version="1.0" standalone="no"?><!DOCTYPE svg PUBLIC "-//W3C//DTD SVG 1.1//EN" "http://www.w3.org/Graphics/SVG/1.1/DTD/svg11.dtd"><svg t="1615196446316" class="icon" viewBox="0 0 1024 1024" version="1.1" xmlns="http://www.w3.org/2000/svg" p-id="5582" xmlns:xlink="http://www.w3.org/1999/xlink" width="200" height="200"><defs><style type="text/css"></style></defs><path d="M512 1024C230.4 1024 0 793.6 0 512S230.4 0 512 0s512 230.4 512 512-230.4 512-512 512z" fill="#EC6646" p-id="5583"></path><path d="M1024 512c0-33.416-3.344-66.072-9.528-97.744l-396.424-180.912H411.664s-68.456-7.664-68.456 60.056c0 67.712-1.024 427.496-1.024 427.496l2.04 43.68 22.48 29.456 123.472 229.416c7.248 0.304 14.512 0.552 21.824 0.552 281.6 0 512-230.4 512-512z" fill="#BF4231" p-id="5584"></path><path d="M610.056 794.384H392.672c-25.136 0-45.688-20.56-45.688-45.688V282.944c0-25.128 20.56-45.688 45.688-45.688h217.384c25.128 0 45.688 20.56 45.688 45.688v465.744c0 25.136-20.56 45.696-45.688 45.696" fill="#FDFBF8" p-id="5585"></path><path d="M605.056 801.568H397.664c-31.912 0-57.872-25.968-57.872-57.872V287.952c0-31.912 25.96-57.88 57.872-57.88h207.392c31.912 0 57.872 25.968 57.872 57.88v455.744c0 31.904-25.96 57.872-57.872 57.872m-207.392-557.12c-23.992 0-43.504 19.512-43.504 43.504v455.744c0 23.984 19.52 43.496 43.504 43.496h207.392c23.992 0 43.504-19.512 43.504-43.496V287.952c0-23.992-19.52-43.504-43.504-43.504H397.664z" fill="#474341" p-id="5586"></path><path d="M391.168 295.464h224.8v393.52h-224.8z" fill="#DFF1FA" p-id="5587"></path><path d="M391.168 541.528a5.03 5.03 0 0 1-5.032-5.032V295.472l5.032-5.024h198.36a5.03 5.03 0 1 1 0 10.056H396.2v236a5.03 5.03 0 0 1-5.032 5.024M615.984 694.024H391.168l-5.032-5.032v-68.864a5.03 5.03 0 1 1 10.064 0v63.832h214.752V369.256a5.03 5.03 0 1 1 10.064 0v319.736l-5.032 5.032z" fill="#474341" p-id="5588"></path><path d="M524.776 736.544c0 10.592-8.592 19.192-19.192 19.192-10.592 0-19.184-8.592-19.184-19.192 0-10.592 8.592-19.192 19.184-19.192 10.6 0.008 19.192 8.6 19.192 19.192" fill="#DFDEDE" p-id="5589"></path><path d="M505.584 760.76c-13.352 0-24.216-10.856-24.216-24.216 0-13.352 10.864-24.216 24.216-24.216s24.216 10.864 24.216 24.216c0 13.36-10.864 24.216-24.216 24.216m0-38.376a14.162 14.162 0 0 0-14.152 14.152c0 7.816 6.352 14.16 14.152 14.16a14.164 14.164 0 0 0 14.152-14.16c0.008-7.8-6.344-14.152-14.152-14.152M510.152 271.688h-25.144a2.02 2.02 0 0 1-2.016-2.008v-5.192c0-1.104 0.904-2.008 2.016-2.008h25.144c1.104 0 2.008 0.904 2.008 2.008v5.192c0 1.104-0.904 2.008-2.008 2.008" fill="#474341" p-id="5590"></path><path d="M653.96 351.36v-47.472c0-1.824 1.496-3.32 3.32-3.32h13.4c1.824 0 3.32 1.496 3.32 3.32v47.472c0 1.832-1.496 3.32-3.32 3.32h-13.4c-1.832 0-3.32-1.496-3.32-3.32" fill="#AEABAA" p-id="5591"></path><path d="M666.392 359.704h-4.832a12.642 12.642 0 0 1-12.632-12.632v-38.896a12.642 12.642 0 0 1 12.632-12.632h4.832a12.642 12.642 0 0 1 12.632 12.632v38.896a12.642 12.642 0 0 1-12.632 12.632M661.56 305.6a2.58 2.58 0 0 0-2.576 2.576v38.896a2.58 2.58 0 0 0 2.576 2.576h4.832a2.58 2.58 0 0 0 2.576-2.576v-38.896a2.58 2.58 0 0 0-2.576-2.576h-4.832z" fill="#474341" p-id="5592"></path><path d="M457.528 668.392h-38.856a5.088 5.088 0 0 1-5.072-5.072v-38.848a5.084 5.084 0 0 1 5.072-5.072h38.856a5.084 5.084 0 0 1 5.072 5.072v38.848a5.08 5.08 0 0 1-5.072 5.072" fill="#0F95BC" p-id="5593"></path><path d="M450.992 673.424h-25.768c-9.176 0-16.648-7.464-16.648-16.648v-25.768c0-9.176 7.472-16.648 16.648-16.648h25.768c9.176 0 16.648 7.464 16.648 16.648v25.768c-0.008 9.184-7.472 16.648-16.648 16.648m-25.768-49a6.596 6.596 0 0 0-6.592 6.584v25.768a6.592 6.592 0 0 0 6.592 6.584h25.768a6.594 6.594 0 0 0 6.584-6.584v-25.768a6.594 6.594 0 0 0-6.584-6.584h-25.768z" fill="#474341" p-id="5594"></path><path d="M526.808 668.392h-38.856a5.088 5.088 0 0 1-5.072-5.072v-38.848a5.084 5.084 0 0 1 5.072-5.072h38.856a5.084 5.084 0 0 1 5.072 5.072v38.848a5.088 5.088 0 0 1-5.072 5.072" fill="#92BE33" p-id="5595"></path><path d="M520.264 673.424h-25.768c-9.176 0-16.648-7.464-16.648-16.648v-25.768c0-9.176 7.464-16.648 16.648-16.648h25.768c9.176 0 16.648 7.464 16.648 16.648v25.768c0 9.184-7.472 16.648-16.648 16.648m-25.768-49a6.594 6.594 0 0 0-6.584 6.584v25.768a6.594 6.594 0 0 0 6.584 6.584h25.768a6.59 6.59 0 0 0 6.584-6.584v-25.768a6.592 6.592 0 0 0-6.592-6.584h-25.76z" fill="#474341" p-id="5596"></path><path d="M594.392 668.392h-38.856a5.088 5.088 0 0 1-5.072-5.072v-38.848a5.084 5.084 0 0 1 5.072-5.072h38.856a5.084 5.084 0 0 1 5.072 5.072v38.848a5.084 5.084 0 0 1-5.072 5.072" fill="#FDFBF8" p-id="5597"></path><path d="M587.848 673.424H562.08c-9.176 0-16.648-7.464-16.648-16.648v-25.768c0-9.176 7.472-16.648 16.648-16.648h25.768c9.176 0 16.648 7.464 16.648 16.648v25.768c0 9.184-7.472 16.648-16.648 16.648m-25.768-49a6.596 6.596 0 0 0-6.592 6.584v25.768a6.592 6.592 0 0 0 6.592 6.584h25.768a6.594 6.594 0 0 0 6.584-6.584v-25.768a6.594 6.594 0 0 0-6.584-6.584H562.08z" fill="#474341" p-id="5598"></path><path d="M452.464 377.776h-38.856a5.088 5.088 0 0 1-5.072-5.072v-38.848a5.084 5.084 0 0 1 5.072-5.072h38.856a5.084 5.084 0 0 1 5.072 5.072v38.848a5.088 5.088 0 0 1-5.072 5.072" fill="#EC6646" p-id="5599"></path><path d="M445.92 382.808h-25.768c-9.176 0-16.648-7.472-16.648-16.656v-25.76c0-9.176 7.472-16.656 16.648-16.656h25.768c9.176 0 16.648 7.472 16.648 16.656v25.76c-0.008 9.184-7.472 16.656-16.648 16.656m-25.768-49a6.604 6.604 0 0 0-6.592 6.592v25.76a6.598 6.598 0 0 0 6.592 6.592h25.768a6.6 6.6 0 0 0 6.584-6.592V340.4a6.6 6.6 0 0 0-6.584-6.592h-25.768z" fill="#474341" p-id="5600"></path><path d="M521.736 377.776H482.88a5.088 5.088 0 0 1-5.072-5.072v-38.848a5.084 5.084 0 0 1 5.072-5.072h38.856a5.084 5.084 0 0 1 5.072 5.072v38.848a5.084 5.084 0 0 1-5.072 5.072" fill="#F7BE15" p-id="5601"></path><path d="M515.192 382.808h-25.768c-9.176 0-16.648-7.472-16.648-16.656v-25.76c0-9.176 7.464-16.656 16.648-16.656h25.768c9.176 0 16.648 7.472 16.648 16.656v25.76c0 9.184-7.464 16.656-16.648 16.656m-25.768-49a6.6 6.6 0 0 0-6.584 6.592v25.76a6.6 6.6 0 0 0 6.584 6.592h25.768a6.596 6.596 0 0 0 6.584-6.592V340.4a6.598 6.598 0 0 0-6.592-6.592h-25.76z" fill="#474341" p-id="5602"></path><path d="M589.32 377.776h-38.856a5.088 5.088 0 0 1-5.072-5.072v-38.848a5.084 5.084 0 0 1 5.072-5.072h38.856a5.084 5.084 0 0 1 5.072 5.072v38.848a5.084 5.084 0 0 1-5.072 5.072" fill="#0F95BC" p-id="5603"></path><path d="M582.776 382.808h-25.768c-9.176 0-16.648-7.472-16.648-16.656v-25.76c0-9.176 7.472-16.656 16.648-16.656h25.768c9.176 0 16.648 7.472 16.648 16.656v25.76c0 9.184-7.464 16.656-16.648 16.656m-25.76-49a6.604 6.604 0 0 0-6.592 6.592v25.76a6.598 6.598 0 0 0 6.592 6.592h25.768a6.6 6.6 0 0 0 6.584-6.592V340.4a6.6 6.6 0 0 0-6.584-6.592h-25.768z" fill="#474341" p-id="5604"></path><path d="M452.464 447.056h-38.856a5.088 5.088 0 0 1-5.072-5.072v-38.848a5.084 5.084 0 0 1 5.072-5.072h38.856a5.084 5.084 0 0 1 5.072 5.072v38.848a5.094 5.094 0 0 1-5.072 5.072" fill="#92BE33" p-id="5605"></path><path d="M445.92 452.088h-25.768c-9.176 0-16.648-7.464-16.648-16.648v-25.768c0-9.176 7.472-16.648 16.648-16.648h25.768c9.176 0 16.648 7.464 16.648 16.648v25.768c-0.008 9.176-7.472 16.648-16.648 16.648m-25.768-49a6.596 6.596 0 0 0-6.592 6.584v25.768a6.592 6.592 0 0 0 6.592 6.584h25.768a6.594 6.594 0 0 0 6.584-6.584v-25.768a6.594 6.594 0 0 0-6.584-6.584h-25.768z" fill="#474341" p-id="5606"></path><path d="M521.736 447.056H482.88a5.088 5.088 0 0 1-5.072-5.072v-38.848a5.084 5.084 0 0 1 5.072-5.072h38.856a5.084 5.084 0 0 1 5.072 5.072v38.848a5.088 5.088 0 0 1-5.072 5.072" fill="#9478B5" p-id="5607"></path><path d="M515.192 452.088h-25.768c-9.176 0-16.648-7.464-16.648-16.648v-25.768c0-9.176 7.464-16.648 16.648-16.648h25.768c9.176 0 16.648 7.464 16.648 16.648v25.768c0 9.176-7.464 16.648-16.648 16.648m-25.768-49a6.594 6.594 0 0 0-6.584 6.584v25.768a6.594 6.594 0 0 0 6.584 6.584h25.768a6.59 6.59 0 0 0 6.584-6.584v-25.768a6.592 6.592 0 0 0-6.592-6.584h-25.76z" fill="#474341" p-id="5608"></path><path d="M589.32 447.056h-38.856a5.088 5.088 0 0 1-5.072-5.072v-38.848a5.084 5.084 0 0 1 5.072-5.072h38.856a5.084 5.084 0 0 1 5.072 5.072v38.848a5.088 5.088 0 0 1-5.072 5.072" fill="#0D946D" p-id="5609"></path><path d="M582.776 452.088h-25.768c-9.176 0-16.648-7.464-16.648-16.648v-25.768c0-9.176 7.472-16.648 16.648-16.648h25.768c9.176 0 16.648 7.464 16.648 16.648v25.768c0 9.176-7.464 16.648-16.648 16.648m-25.76-49a6.596 6.596 0 0 0-6.592 6.584v25.768a6.592 6.592 0 0 0 6.592 6.584h25.768a6.594 6.594 0 0 0 6.584-6.584v-25.768a6.594 6.594 0 0 0-6.584-6.584h-25.768z" fill="#474341" p-id="5610"></path><path d="M510.416 548.48a5.026 5.026 0 0 1-2.064-9.608l84.736-38.024c2.52-1.168 5.512 0 6.648 2.52a5.01 5.01 0 0 1-2.528 6.64l-84.736 38.024a4.82 4.82 0 0 1-2.056 0.448M444.488 578.072a5.026 5.026 0 0 1-2.064-9.608l35.928-16.12c2.536-1.168 5.512 0 6.648 2.52a5.016 5.016 0 0 1-2.528 6.64l-35.928 16.12a4.844 4.844 0 0 1-2.056 0.448M493.128 584.016c-1.936 0-3.776-1.12-4.608-3a5.046 5.046 0 0 1 2.576-6.64l99.656-43.896a5.03 5.03 0 1 1 4.056 9.208l-99.656 43.896a5.09 5.09 0 0 1-2.024 0.432" fill="#0F95BC" p-id="5611"></path></svg>