<?xml version="1.0" standalone="no"?><!DOCTYPE svg PUBLIC "-//W3C//DTD SVG 1.1//EN" "http://www.w3.org/Graphics/SVG/1.1/DTD/svg11.dtd"><svg t="1615195591409" class="icon" viewBox="0 0 1024 1024" version="1.1" xmlns="http://www.w3.org/2000/svg" p-id="8484" xmlns:xlink="http://www.w3.org/1999/xlink" width="200" height="200"><defs><style type="text/css"></style></defs><path d="M512 1024C230.4 1024 0 793.6 0 512S230.4 0 512 0s512 230.4 512 512-230.4 512-512 512z" fill="#EC6646" p-id="8485"></path><path d="M1024 512c0-33.24-3.32-65.728-9.44-97.248l-248.072-139.808H239.784s-8.584 10.88-20.336 78.56c0 8.376 0 25.176 15.256 35.248 4.064 93.664 3.048 337.392 3.048 337.392l-15.744 7.488-2.56 25.752 269.304 264.032c7.712 0.344 15.448 0.584 23.248 0.584 281.6 0 512-230.4 512-512z" fill="#BF4231" p-id="8486"></path><path d="M766.736 376.456V728.84H241.072V376.456" fill="#DACEB6" p-id="8487"></path><path d="M766.736 734.424H241.072l-5.576-5.584V376.456a5.582 5.582 0 0 1 11.16 0v346.808h514.496V376.456a5.578 5.578 0 0 1 5.584-5.576 5.582 5.582 0 0 1 5.584 5.576V728.84l-5.584 5.584z" fill="#474341" p-id="8488"></path><path d="M266.968 356.232h323.04V698.96h-323.04zM622.48 359.184h116.096v339.44H622.48z" fill="#DFF1FA" p-id="8489"></path><path d="M621.416 591.016a3.9 3.9 0 0 1-3.904-3.904v-197.52c0-2.16 1.744-3.904 3.904-3.904s3.904 1.744 3.904 3.904v197.52a3.9 3.9 0 0 1-3.904 3.904M740.064 705.56h-118.648l-3.904-3.904v-59.568c0-2.16 1.744-3.904 3.904-3.904s3.904 1.744 3.904 3.904v55.664h110.84V420.384c0-2.16 1.744-3.904 3.904-3.904s3.904 1.744 3.904 3.904v281.272l-3.904 3.904zM560.76 702.856H266.968l-3.904-3.904v-225.36c0-2.16 1.744-3.904 3.904-3.904s3.904 1.744 3.904 3.904v221.456H560.76c2.16 0 3.904 1.744 3.904 3.904s-1.744 3.904-3.904 3.904M592.264 640.672a3.9 3.9 0 0 1-3.904-3.904V374.984c0-2.16 1.744-3.904 3.904-3.904s3.904 1.744 3.904 3.904v261.784c0 2.16-1.736 3.904-3.904 3.904" fill="#474341" p-id="8490"></path><path d="M710.184 570.064c-9.352 0-16.976-7.616-16.976-16.968s7.616-16.968 16.976-16.968 16.976 7.616 16.976 16.968c-0.008 9.344-7.624 16.968-16.976 16.968m0-26.128a9.168 9.168 0 0 0-9.16 9.16c0 5.048 4.112 9.16 9.16 9.16s9.16-4.112 9.16-9.16a9.168 9.168 0 0 0-9.16-9.16M369.16 496.6a3.84 3.84 0 0 1-2.568-0.968 3.886 3.886 0 0 1-0.368-5.504l25.088-28.688a3.886 3.886 0 0 1 5.504-0.368c1.632 1.416 1.792 3.888 0.368 5.504l-25.088 28.688a3.9 3.9 0 0 1-2.936 1.336" fill="#474341" p-id="8491"></path><path d="M424.96 487.312a3.94 3.94 0 0 1-1.936-0.512l-33.072-18.92a3.906 3.906 0 1 1 3.872-6.784l33.072 18.92a3.904 3.904 0 0 1-1.936 7.296" fill="#474341" p-id="8492"></path><path d="M393.256 472.432a6.998 6.998 0 0 1-6.872-5.824 6.988 6.988 0 0 1 5.72-8.048c1.872-0.272 3.704 0.128 5.216 1.208a6.898 6.898 0 0 1 2.832 4.536 6.93 6.93 0 0 1-1.2 5.2 6.876 6.876 0 0 1-4.536 2.824 6.38 6.38 0 0 1-1.16 0.104m0.008-7.808c-0.048 0-0.088 0-0.136 0.008l-0.68 0.952c0.064 0.384 0.544 0.792 0.944 0.688a0.832 0.832 0 0 0-0.128-1.648" fill="#474341" p-id="8493"></path><path d="M489.05 521.322l-168.974 28.374-7.708-45.902 168.974-28.374z" fill="#E9495B" p-id="8494"></path><path d="M320.712 553.52l-4.496-3.208-7.712-45.904 3.208-4.496 168.968-28.376 4.496 3.2 7.696 45.904-3.2 4.496-168.96 28.384z m-3.856-46.544l6.416 38.2 161.272-27.088-6.416-38.2-161.272 27.088z" fill="#474341" p-id="8495"></path><path d="M284.128 273.368h-45.2l-17.088 72.104h-0.024c0 0.04-0.008 0.08-0.008 0.12l-0.256 1.064h0.216a227.498 227.498 0 0 0-0.216 9.792c0 18.4 12.952 33.464 28.792 33.464h4.984c15.832 0 28.784-15.056 28.784-33.464 0-3.544-0.056-6.784-0.168-9.792h0.168v-73.288h0.016z" fill="#F4EDDD" p-id="8496"></path><path d="M255.336 393.816h-4.984c-18.024 0-32.688-16.768-32.688-37.368 0-3.64 0.08-6.896 0.216-9.968l0.504 0.024-0.624-0.744 0.248-1.056 0.624 0.152 0.112-0.12-0.696-0.16 17.088-72.104 3.792-3.008h45.192l3.904 3.904-0.16 73.44c0.096 2.968 0.16 6.168 0.16 9.64 0 20.608-14.656 37.368-32.688 37.368m-29.776-47.104l0.112 0.112c-0.12 2.96-0.2 6.12-0.2 9.632 0 16.296 11.16 29.552 24.88 29.552h4.984c13.72 0 24.88-13.256 24.88-29.552 0-3.488-0.064-6.688-0.168-9.664l0.168-0.168V277.28h-38.2l-16.456 69.432z" fill="#474341" p-id="8497"></path><path d="M346.688 273.368h-62.56v73.288h0.2c-0.128 3.008-0.2 6.24-0.2 9.792 0 18.4 12.952 33.464 28.792 33.464h4.984c15.832 0 28.784-15.056 28.784-33.464 0-3.544-0.056-6.784-0.168-9.792h0.168v-73.288z" fill="#E9495B" p-id="8498"></path><path d="M317.896 393.816h-4.992c-18.024 0-32.688-16.76-32.688-37.36 0-3.48 0.072-6.664 0.192-9.624l-0.192-0.176v-73.28l3.904-3.904h62.56l3.904 3.904-0.16 73.44c0.112 2.968 0.16 6.168 0.16 9.64 0.008 20.6-14.664 37.36-32.688 37.36m-29.864-47.184l0.192 0.192a222.496 222.496 0 0 0-0.192 9.632c0 16.296 11.16 29.552 24.88 29.552h4.992c13.72 0 24.88-13.256 24.88-29.552 0-3.488-0.056-6.688-0.168-9.656l0.168-0.168V277.28H288.04v69.352h-0.008z" fill="#474341" p-id="8499"></path><path d="M409.248 273.368h-62.56v73.288h0.2c-0.128 3.008-0.2 6.24-0.2 9.792 0 18.4 12.952 33.464 28.792 33.464h4.984c15.832 0 28.784-15.056 28.784-33.464 0-3.544-0.056-6.784-0.168-9.792h0.168v-73.288z" fill="#F4EDDD" p-id="8500"></path><path d="M380.456 393.816h-4.984c-18.032 0-32.696-16.768-32.696-37.368 0-3.48 0.072-6.664 0.192-9.624l-0.192-0.176v-73.28l3.904-3.904h62.56l3.904 3.904-0.168 73.448c0.112 2.968 0.168 6.152 0.168 9.632 0.016 20.608-14.656 37.368-32.688 37.368m-29.864-47.2l0.2 0.2c-0.12 2.952-0.2 6.144-0.2 9.64 0 16.296 11.168 29.552 24.888 29.552h4.984c13.72 0 24.888-13.256 24.888-29.552 0-3.488-0.064-6.688-0.176-9.656l0.176-0.176V277.28h-54.76v69.336z" fill="#474341" p-id="8501"></path><path d="M471.808 273.368h-62.56v73.288h0.2c-0.128 3.008-0.2 6.24-0.2 9.792 0 18.4 12.952 33.464 28.792 33.464h4.984c15.832 0 28.784-15.056 28.784-33.464 0-3.544-0.056-6.784-0.168-9.792h0.168v-73.288z" fill="#E9495B" p-id="8502"></path><path d="M443.024 393.816h-4.992c-18.024 0-32.688-16.76-32.688-37.36 0-3.48 0.072-6.664 0.192-9.624l-0.192-0.176v-73.28l3.904-3.904h62.56l3.904 3.904-0.16 73.44c0.096 2.968 0.16 6.168 0.16 9.64 0 20.6-14.664 37.36-32.688 37.36m-29.872-47.184l0.192 0.192a222.496 222.496 0 0 0-0.192 9.632c0 16.296 11.16 29.552 24.88 29.552h4.992c13.72 0 24.88-13.256 24.88-29.552 0-3.488-0.056-6.688-0.168-9.664l0.168-0.168V277.28H413.16v69.352h-0.008z" fill="#474341" p-id="8503"></path><path d="M534.376 273.368h-62.56v73.288h0.2c-0.128 3.008-0.2 6.24-0.2 9.792 0 18.4 12.952 33.464 28.792 33.464h4.984c15.832 0 28.784-15.056 28.784-33.464 0-3.544-0.056-6.784-0.168-9.792h0.168v-73.288z" fill="#F4EDDD" p-id="8504"></path><path d="M505.584 393.816H500.6c-18.032 0-32.696-16.768-32.696-37.368 0-3.48 0.072-6.664 0.192-9.624l-0.192-0.176v-73.28l3.904-3.904h62.56l3.904 3.904-0.168 73.448c0.112 2.968 0.168 6.152 0.168 9.632 0.008 20.608-14.656 37.368-32.688 37.368m-29.872-47.2l0.2 0.2c-0.12 2.952-0.2 6.144-0.2 9.64 0 16.296 11.168 29.552 24.888 29.552h4.984c13.72 0 24.888-13.256 24.888-29.552 0-3.488-0.064-6.688-0.176-9.656l0.176-0.176V277.28h-54.76v69.336z" fill="#474341" p-id="8505"></path><path d="M596.936 273.368h-62.56v73.288h0.2c-0.128 3.008-0.2 6.24-0.2 9.792 0 18.4 12.952 33.464 28.792 33.464h4.984c15.832 0 28.784-15.056 28.784-33.464 0-3.544-0.056-6.784-0.168-9.792h0.168v-73.288z" fill="#E9495B" p-id="8506"></path><path d="M568.144 393.816h-4.992c-18.024 0-32.688-16.76-32.688-37.36 0-3.48 0.072-6.664 0.192-9.624l-0.192-0.176v-73.28l3.904-3.904h62.56l3.904 3.904-0.16 73.44c0.096 2.968 0.16 6.168 0.16 9.64 0.008 20.6-14.664 37.36-32.688 37.36m-29.864-47.184l0.192 0.192a222.496 222.496 0 0 0-0.192 9.632c0 16.296 11.16 29.552 24.88 29.552h4.992c13.72 0 24.88-13.256 24.88-29.552 0-3.488-0.056-6.688-0.168-9.664l0.168-0.168V277.28h-54.744v69.352h-0.008z" fill="#474341" p-id="8507"></path><path d="M659.496 273.368h-62.56v73.104h0.072c-0.04 2.04-0.072 4.136-0.072 6.376 0 20.256 12.952 36.824 28.792 36.824h4.984c15.832 0 28.784-16.568 28.784-36.824 0-2.232-0.024-4.336-0.064-6.376h0.064v-73.104z" fill="#F4EDDD" p-id="8508"></path><path d="M630.704 393.576h-4.976c-18.032 0-32.696-18.264-32.696-40.728 0-2.208 0.032-4.28 0.08-6.312l-0.08-0.064v-73.096l3.904-3.904h62.568l3.904 3.904-0.064 73.16c0.032 2.024 0.064 4.104 0.064 6.32-0.008 22.456-14.672 40.72-32.704 40.72m-29.88-47.104l0.088 0.088c-0.048 2.024-0.08 4.088-0.08 6.296 0 18.152 11.168 32.92 24.888 32.92h4.976c13.72 0 24.888-14.768 24.888-32.92 0-2.216-0.032-4.296-0.064-6.32l0.064-0.064V277.28h-54.76v69.192z" fill="#474341" p-id="8509"></path><path d="M722.056 273.368h-62.56v73.288h0.2c-0.128 3.008-0.2 6.24-0.2 9.792 0 18.4 12.952 33.464 28.792 33.464h4.984c15.832 0 28.784-15.056 28.784-33.464 0-3.544-0.056-6.784-0.168-9.792h0.168v-73.288z" fill="#E9495B" p-id="8510"></path><path d="M693.272 393.816h-4.992c-18.024 0-32.688-16.76-32.688-37.36 0-3.48 0.072-6.664 0.192-9.624l-0.192-0.176v-73.28l3.904-3.904h62.56l3.904 3.904-0.16 73.44c0.096 2.968 0.16 6.168 0.16 9.64 0 20.6-14.664 37.36-32.688 37.36M663.4 346.632l0.192 0.192a222.496 222.496 0 0 0-0.192 9.632c0 16.296 11.16 29.552 24.88 29.552h4.992c13.72 0 24.88-13.256 24.88-29.552 0-3.488-0.056-6.688-0.168-9.664l0.168-0.168V277.28h-54.744v69.352h-0.008z" fill="#474341" p-id="8511"></path><path d="M784.44 346.656h0.184l-17.704-73.288h-44.864v73.288h0.2c-0.128 3.008-0.2 6.24-0.2 9.792 0 18.4 12.952 33.464 28.792 33.464h4.984c15.832 0 28.784-15.056 28.784-33.464 0-3.552-0.064-6.776-0.176-9.792" fill="#F4EDDD" p-id="8512"></path><path d="M755.832 393.816h-4.984c-18.032 0-32.696-16.768-32.696-37.368 0-3.48 0.072-6.664 0.192-9.624l-0.192-0.176v-73.28l3.904-3.904h44.856l3.792 2.992 17.712 73.28-0.624 0.784 0.544-0.016c0.112 3.056 0.184 6.336 0.184 9.944 0.008 20.608-14.656 37.368-32.688 37.368m-29.872-47.2l0.2 0.2c-0.12 2.952-0.2 6.144-0.2 9.64 0 16.296 11.168 29.552 24.888 29.552h4.984c13.72 0 24.888-13.256 24.888-29.552 0-3.504-0.064-6.688-0.184-9.656l0.088-0.088-16.776-69.44h-37.88v69.344h-0.008z" fill="#474341" p-id="8513"></path><path d="M787.792 360.36H221.568c-2.16 0-3.904-1.744-3.904-3.904s1.744-3.904 3.904-3.904h566.224a3.904 3.904 0 0 1 0 7.808M691.6 472.288l-52.416 51.6c-3.584 3.536 1.936 9.056 5.52 5.52 17.472-17.2 34.944-34.408 52.416-51.6 3.592-3.528-1.928-9.048-5.52-5.52M724.048 440.344c-6.784 6.68-13.576 13.368-20.368 20.048-3.584 3.536 1.936 9.056 5.52 5.52 6.792-6.68 13.576-13.368 20.368-20.048 3.584-3.528-1.936-9.048-5.52-5.52M682.592 444.56c-5.832 5.52-11.664 11.048-17.504 16.568-3.656 3.464 1.872 8.984 5.52 5.52 5.832-5.52 11.664-11.048 17.504-16.568 3.656-3.464-1.872-8.976-5.52-5.52M702.296 425.896c-3.44 3.256-6.88 6.512-10.312 9.768-3.656 3.464 1.872 8.976 5.52 5.52 3.44-3.256 6.88-6.512 10.312-9.768 3.664-3.464-1.864-8.976-5.52-5.52M652.952 473.024a550.204 550.204 0 0 1-20.336 19.736c-3.704 3.408 1.824 8.92 5.52 5.52 6.952-6.4 13.728-12.976 20.344-19.736 3.512-3.592-2.008-9.12-5.528-5.52M550.4 582.768c-21.52 20.44-43.032 40.872-64.544 61.312-3.648 3.464 1.88 8.984 5.52 5.52l64.544-61.304c3.656-3.472-1.872-8.984-5.52-5.528M474.256 658.256l-8.232 7.776c-3.664 3.456 1.872 8.968 5.52 5.52 2.752-2.592 5.488-5.184 8.24-7.776 3.656-3.456-1.872-8.968-5.528-5.52M572.256 592.544l-43.776 41.224c-3.664 3.456 1.864 8.968 5.52 5.52 14.592-13.744 29.184-27.48 43.776-41.216 3.664-3.456-1.864-8.976-5.52-5.528M514.768 647.608l-19.008 17.952c-3.664 3.456 1.872 8.968 5.52 5.52l19.008-17.944c3.664-3.464-1.864-8.984-5.52-5.528" fill="#474341" p-id="8514"></path><path d="M222.584 729.92h574.672v28.384H222.584z" fill="#F4EDDD" p-id="8515"></path><path d="M797.256 762.168H222.568l-3.904-3.904v-28.376l3.904-3.904h574.68l3.904 3.904v28.376l-3.896 3.904z m-570.776-7.8h566.872V733.8H226.48v20.568z" fill="#474341" p-id="8516"></path></svg>