<?xml version="1.0" standalone="no"?><!DOCTYPE svg PUBLIC "-//W3C//DTD SVG 1.1//EN" "http://www.w3.org/Graphics/SVG/1.1/DTD/svg11.dtd"><svg t="1615196348064" class="icon" viewBox="0 0 1024 1024" version="1.1" xmlns="http://www.w3.org/2000/svg" p-id="5094" xmlns:xlink="http://www.w3.org/1999/xlink" width="200" height="200"><defs><style type="text/css"></style></defs><path d="M512 1024C230.4 1024 0 793.6 0 512S230.4 0 512 0s512 230.4 512 512-230.4 512-512 512z" fill="#E9495B" p-id="5095"></path><path d="M744.52 271.6l-24.264-20.04-18.336-12.952-10.232 35.304-192.56 100.872-162.36 17.144s-95.208 19.976-103.304 86.744c-11.248 92.8 59.328 85.736 59.328 85.736l4.088 26.224 193.544 432.664c8.032 0.416 16.128 0.584 24.248 0.632C795.048 1022.472 1024 792.704 1024 512c0-34.2-3.464-67.624-9.936-100L744.52 271.6z" fill="#AB2D3D" p-id="5096"></path><path d="M284.784 422.2l-13.064-4.896-22.032 13.872-21.224 44.896 4.08 44.072 16.32 28.576 18.776 15.504 20.408 1.632z" fill="#EC6646" p-id="5097"></path><path d="M342.736 594.424l42.44 116.72 22.856 55.504 17.952 19.592 22.04 5.712 17.144-10.608 5.712-23.672-14.696-39.992-47.336-119.992zM488.024 378.944l187.256-97.952 2.512 433.416-189.768-108.96z" fill="#DFDEDE" p-id="5098"></path><path d="M488.024 378.944v226.504l-199.568-19.592-2.448-191zM679.016 256.504l-3.672 45.304v421.176l13.464 20.808h22.04l18.368-17.136-2.448-464.024-9.792-20.816-24.488-1.224z" fill="#AEABAA" p-id="5099"></path><path d="M636.224 690.544c-1.08 0-2.176-0.256-3.216-0.8l-148.44-77.816-195.52-17.752a6.95 6.95 0 0 1-6.312-6.792l-2.856-168.328a6.95 6.95 0 0 1 6.832-7.064c4.008 0.176 6.992 2.992 7.064 6.824l2.744 162.096 187.744 17.048c1.552-0.352 3.128-0.232 4.544 0.512l150.656 78.976a6.954 6.954 0 0 1 2.928 9.376 6.962 6.962 0 0 1-6.168 3.72M324.224 399.88a6.938 6.938 0 0 1-0.616-13.848l160.968-14.616 186.68-97.856a6.944 6.944 0 0 1 10.168 6.144v64.952a6.94 6.94 0 0 1-6.944 6.936 6.936 6.936 0 0 1-6.944-6.936v-53.48L488.8 384.864a6.916 6.916 0 0 1-5.024 0.56l-158.912 14.424a5.91 5.91 0 0 1-0.64 0.032M674.464 667.48a6.936 6.936 0 0 1-6.944-6.936V418.736c0-3.84 3.104-6.936 6.944-6.936s6.944 3.104 6.944 6.936v241.8a6.938 6.938 0 0 1-6.944 6.944" fill="#474341" p-id="5100"></path><path d="M701.872 753.528c-18 0-32.656-14.648-32.656-32.648a6.942 6.942 0 1 1 13.888 0c0 10.344 8.416 18.768 18.768 18.768s18.768-8.424 18.768-18.768V265.424c0-10.352-8.416-18.768-18.768-18.768s-18.768 8.424-18.768 18.768a6.936 6.936 0 0 1-6.944 6.936 6.936 6.936 0 0 1-6.944-6.936c0-18.008 14.656-32.648 32.656-32.648s32.656 14.648 32.656 32.648V720.88c0 18.008-14.656 32.648-32.656 32.648M489.248 575.448a4.854 4.854 0 0 1-4.856-4.856v-34.096c0-2.68 2.168-4.856 4.856-4.856s4.856 2.176 4.856 4.856v34.096a4.848 4.848 0 0 1-4.856 4.856M489.248 526.304a4.854 4.854 0 0 1-4.856-4.856v-108.696c0-2.688 2.168-4.856 4.856-4.856s4.856 2.176 4.856 4.856v108.688a4.85 4.85 0 0 1-4.856 4.864M280.696 572.712c-32.296 0-58.568-36.36-58.568-81.048s26.272-81.04 58.568-81.04a6.936 6.936 0 1 1 0 13.872c-24.64 0-44.68 30.128-44.68 67.168s20.04 67.168 44.68 67.168a6.936 6.936 0 0 1 6.944 6.936 6.938 6.938 0 0 1-6.944 6.944M442.536 798.864c-15.984 0-32.2-11.776-39.48-30.264l-41.888-106.472a6.94 6.94 0 0 1 3.912-9c3.568-1.376 7.608 0.336 9.008 3.92l41.888 106.464c6.152 15.592 21.208 24.936 32.968 20.272 11.736-4.616 16.464-21.704 10.336-37.304l-55.784-138.888c-1.44-3.56 0.296-7.6 3.856-9.032a6.93 6.93 0 0 1 9.016 3.856l55.8 138.936c9.072 23.04 0.92 47.848-18.136 55.352a31.364 31.364 0 0 1-11.496 2.16" fill="#474341" p-id="5101"></path><path d="M423.12 644.528c22.928-0.032 41.064-18.52 40.16-41.544-0.344-8.904-14.232-8.952-13.88 0 0.608 15.488-10.664 27.632-26.28 27.664-8.936 0.016-8.944 13.896 0 13.88M378.184 443.216a4.862 4.862 0 0 1-0.328-9.712l58.128-4.056c2.672-0.296 4.992 1.824 5.184 4.504a4.866 4.866 0 0 1-4.512 5.184l-58.12 4.064c-0.12 0.008-0.232 0.016-0.352 0.016M330.208 446.568a4.862 4.862 0 0 1-4.84-4.52 4.88 4.88 0 0 1 4.512-5.192l34.776-2.424c2.624-0.216 4.992 1.824 5.184 4.504a4.866 4.866 0 0 1-4.512 5.184l-34.76 2.432c-0.128 0.008-0.248 0.016-0.36 0.016M435.512 493.992h-0.064l-38.752-0.552a4.862 4.862 0 0 1 0.064-9.72h0.064l38.752 0.552a4.86 4.86 0 0 1-0.064 9.72M379.872 493.2h-0.064l-48.84-0.696a4.86 4.86 0 0 1-4.792-4.928c0.04-2.68 1.968-4.704 4.928-4.792l48.84 0.696a4.86 4.86 0 0 1 4.792 4.928 4.872 4.872 0 0 1-4.864 4.792M437.968 551.792c-0.136 0-0.264-0.008-0.4-0.016l-59.704-4.856a4.864 4.864 0 0 1-4.448-5.24c0.208-2.672 2.6-4.632 5.232-4.448l59.704 4.848a4.86 4.86 0 0 1 4.448 5.24 4.86 4.86 0 0 1-4.832 4.472M358.952 545.368c-0.136 0-0.264-0.008-0.4-0.016l-30.36-2.472a4.86 4.86 0 0 1-4.448-5.24c0.208-2.68 2.576-4.632 5.232-4.448l30.36 2.464a4.86 4.86 0 0 1 4.448 5.24 4.852 4.852 0 0 1-4.832 4.472" fill="#474341" p-id="5102"></path><path d="M731.664 399.464c15.552 0 28.16 43.792 28.16 97.816s-12.608 97.816-28.16 97.816" fill="#EC6646" p-id="5103"></path><path d="M731.664 599.96c-2.688 0-4.856-2.176-4.856-4.856s2.168-4.856 4.856-4.856c9.496 0 23.304-36.216 23.304-92.96s-13.8-92.96-23.304-92.96c-2.688 0-4.856-2.176-4.856-4.856s2.168-4.856 4.856-4.856c21.672 0 33.016 51.656 33.016 102.68s-11.336 102.664-33.016 102.664M668.408 371.592v8.16c0 6.304 9.792 6.312 9.792 0v-8.16c0-6.296-9.792-6.304-9.792 0M354.848 618.408a19341.2 19341.2 0 0 1-7.808-22.976c-2.016-5.936-11.48-3.384-9.448 2.608 2.608 7.656 5.208 15.312 7.816 22.976 2.016 5.936 11.48 3.384 9.44-2.608" fill="#474341" p-id="5104"></path></svg>