<?xml version="1.0" standalone="no"?><!DOCTYPE svg PUBLIC "-//W3C//DTD SVG 1.1//EN" "http://www.w3.org/Graphics/SVG/1.1/DTD/svg11.dtd"><svg t="1615196309455" class="icon" viewBox="0 0 1024 1024" version="1.1" xmlns="http://www.w3.org/2000/svg" p-id="4931" xmlns:xlink="http://www.w3.org/1999/xlink" width="200" height="200"><defs><style type="text/css"></style></defs><path d="M512 1024C230.4 1024 0 793.6 0 512S230.4 0 512 0s512 230.4 512 512-230.4 512-512 512z" fill="#92BE33" p-id="4932"></path><path d="M1024 512c0-34.224-3.464-67.664-9.944-100.056l-346.12-159.76-294.48-1.896s-75.08-11.896-75.08 55.384 4.312 410.736 4.312 410.736l1.872 52.48 189.04 254.64c6.12 0.224 12.232 0.472 18.4 0.472 281.6 0 512-230.4 512-512z" fill="#61872E" p-id="4933"></path><path d="M701.576 293.768c10.728 7.384 17.792 19.736 17.792 33.672v445.184c0 22.464-18.376 40.84-40.84 40.84h-302.24c-12.84 0-24.352-6.008-31.856-15.352" fill="#F1F9FD" p-id="4934"></path><path d="M678.528 819.816h-302.24c-14.352 0-27.768-6.464-36.816-17.736a6.346 6.346 0 0 1 0.976-8.928 6.372 6.372 0 0 1 8.944 0.976c6.616 8.24 16.424 12.968 26.896 12.968H678.52c19.008 0 34.488-15.464 34.488-34.48V327.44c0-11.328-5.624-21.96-15.04-28.44a6.36 6.36 0 1 1 7.208-10.48c12.864 8.856 20.544 23.4 20.544 38.912v445.176c0 26.032-21.168 47.208-47.192 47.208M573.544 257.56h-29.096c-3.512 0-6.352-2.848-6.352-6.36s2.84-6.36 6.352-6.36h29.096a6.354 6.354 0 0 1 6.352 6.36c0 3.512-2.84 6.36-6.352 6.36M516.872 257.56h-30.376c-3.512 0-6.352-2.848-6.352-6.36s2.84-6.36 6.352-6.36h30.376a6.354 6.354 0 0 1 6.352 6.36c0 3.512-2.84 6.36-6.352 6.36M458.168 257.56H429.76c-3.512 0-6.352-2.848-6.352-6.36s2.84-6.36 6.352-6.36h28.408a6.354 6.354 0 0 1 6.352 6.36c0 3.512-2.84 6.36-6.352 6.36M400.472 257.56h-29.096c-3.512 0-6.352-2.848-6.352-6.36s2.84-6.36 6.352-6.36h29.096a6.354 6.354 0 0 1 6.352 6.36c0 3.512-2.84 6.36-6.352 6.36" fill="#474341" p-id="4935"></path><path d="M600.088 251.192h42.44c22.464 0 40.84 18.384 40.84 40.84v445.184c0 22.456-18.376 40.84-40.84 40.84H340.296c-22.464 0-40.84-18.384-40.84-40.84V292.04c0-22.464 18.376-40.84 40.84-40.84" fill="#F1F9FD" p-id="4936"></path><path d="M642.528 784.424H340.296c-26.024 0-47.192-21.176-47.192-47.208V292.04c0-26.024 21.176-47.2 47.192-47.2 3.512 0 6.352 2.848 6.352 6.36s-2.84 6.36-6.352 6.36c-19.016 0-34.488 15.464-34.488 34.48v445.184c0 19.024 15.472 34.488 34.488 34.488h302.232c19.016 0 34.488-15.464 34.488-34.488V292.04c0-19.016-15.472-34.48-34.488-34.48h-42.44c-3.512 0-6.352-2.848-6.352-6.36s2.84-6.36 6.352-6.36h42.44c26.024 0 47.2 21.176 47.2 47.2v445.184c0 26.024-21.176 47.2-47.2 47.2" fill="#474341" p-id="4937"></path><path d="M644.432 372.048h-54.296a4.448 4.448 0 0 1 0-8.896h54.296c2.456 0 4.448 1.984 4.448 4.448a4.44 4.44 0 0 1-4.448 4.448M564.504 372.048H336.136a4.448 4.448 0 0 1 0-8.896h228.376a4.45 4.45 0 0 1-0.008 8.896M644.432 414.984h-137.024a4.448 4.448 0 0 1 0-8.896h137.032c2.456 0 4.448 1.984 4.448 4.448s-1.992 4.448-4.456 4.448M487.432 414.984h-151.304a4.448 4.448 0 0 1 0-8.896h151.296c2.456 0 4.448 1.984 4.448 4.448a4.432 4.432 0 0 1-4.44 4.448M644.432 457.92H576.88a4.448 4.448 0 0 1 0-8.896h67.552c2.456 0 4.448 1.984 4.448 4.448a4.44 4.44 0 0 1-4.448 4.448M556.312 457.92H336.136a4.448 4.448 0 0 1 0-8.896h220.176a4.448 4.448 0 0 1 0 8.896M644.432 500.864H435.096a4.448 4.448 0 0 1 0-8.896H644.44a4.45 4.45 0 0 1-0.008 8.896M408.56 500.864h-72.424a4.448 4.448 0 0 1 0-8.896h72.424a4.448 4.448 0 0 1 0 8.896M644.432 543.8h-35.04a4.448 4.448 0 0 1 0-8.896h35.04c2.456 0 4.448 1.984 4.448 4.448a4.434 4.434 0 0 1-4.448 4.448M583.928 543.8H336.136a4.448 4.448 0 0 1 0-8.896h247.792c2.456 0 4.448 1.984 4.448 4.448s-1.992 4.448-4.448 4.448M644.432 586.736H445.2a4.448 4.448 0 0 1 0-8.896h199.232c2.456 0 4.448 1.984 4.448 4.448a4.44 4.44 0 0 1-4.448 4.448M426.056 586.736h-89.92a4.448 4.448 0 0 1 0-8.896h89.928a4.45 4.45 0 0 1-0.008 8.896M644.432 629.68h-47.104a4.448 4.448 0 0 1 0-8.896h47.104c2.456 0 4.448 1.984 4.448 4.448a4.44 4.44 0 0 1-4.448 4.448M570.224 629.68H336.128a4.448 4.448 0 0 1 0-8.896h234.088c2.456 0 4.448 1.984 4.448 4.448a4.436 4.436 0 0 1-4.44 4.448M644.432 672.608h-215a4.448 4.448 0 0 1 0-8.896h215c2.456 0 4.448 1.984 4.448 4.448a4.434 4.434 0 0 1-4.448 4.448M408.56 672.608h-72.424a4.448 4.448 0 0 1 0-8.896h72.424c2.456 0 4.448 1.984 4.448 4.448a4.444 4.444 0 0 1-4.448 4.448M644.432 715.552h-60.456a4.448 4.448 0 0 1 0-8.896h60.456c2.456 0 4.448 1.984 4.448 4.448a4.44 4.44 0 0 1-4.448 4.448M558.152 715.552h-108.168a4.444 4.444 0 0 1-4.448-4.448c0-2.456 1.984-4.448 4.448-4.448h108.168a4.448 4.448 0 0 1 0 8.896M427.216 715.552h-91.08a4.448 4.448 0 0 1 0-8.896h91.08a4.448 4.448 0 0 1 0 8.896" fill="#0F95BC" p-id="4938"></path><path d="M358.528 278.928c-0.824 0-1.664-0.168-2.472-0.512a34.612 34.612 0 0 1-21.168-31.936c0-19.112 15.544-34.664 34.664-34.664s34.664 15.552 34.664 34.664a6.354 6.354 0 1 1-12.704 0c0-12.104-9.848-21.944-21.952-21.944s-21.952 9.848-21.952 21.944c0 8.84 5.264 16.784 13.408 20.232a6.354 6.354 0 0 1 3.376 8.328 6.366 6.366 0 0 1-5.864 3.888" fill="#474341" p-id="4939"></path><path d="M418.736 278.928c-0.824 0-1.664-0.168-2.472-0.512a34.604 34.604 0 0 1-21.16-31.936c0-19.112 15.544-34.664 34.656-34.664s34.664 15.552 34.664 34.664a6.354 6.354 0 1 1-12.704 0c0-12.104-9.848-21.944-21.952-21.944s-21.944 9.848-21.944 21.944c0 8.848 5.264 16.784 13.408 20.232a6.354 6.354 0 0 1 3.376 8.328 6.394 6.394 0 0 1-5.872 3.888" fill="#474341" p-id="4940"></path><path d="M476.016 278.928c-0.824 0-1.664-0.168-2.472-0.512a34.612 34.612 0 0 1-21.168-31.936c0-19.112 15.544-34.664 34.664-34.664 19.112 0 34.656 15.552 34.656 34.664a6.354 6.354 0 1 1-12.704 0c0-12.104-9.848-21.944-21.944-21.944-12.104 0-21.952 9.848-21.952 21.944 0 8.84 5.264 16.784 13.408 20.232a6.354 6.354 0 0 1 3.376 8.328 6.374 6.374 0 0 1-5.864 3.888" fill="#474341" p-id="4941"></path><path d="M536.216 278.928c-0.824 0-1.664-0.168-2.472-0.512a34.612 34.612 0 0 1-21.168-31.936c0-19.112 15.544-34.664 34.664-34.664 19.112 0 34.664 15.552 34.664 34.664a6.354 6.354 0 1 1-12.704 0c0-12.104-9.848-21.944-21.952-21.944s-21.952 9.848-21.952 21.944c0 8.84 5.264 16.784 13.408 20.232a6.354 6.354 0 0 1 3.376 8.328 6.366 6.366 0 0 1-5.864 3.888" fill="#474341" p-id="4942"></path><path d="M598.376 278.928c-0.824 0-1.664-0.168-2.472-0.512a34.612 34.612 0 0 1-21.168-31.936c0-19.112 15.544-34.664 34.664-34.664 19.112 0 34.656 15.552 34.656 34.664a6.354 6.354 0 1 1-12.704 0c0-12.104-9.848-21.944-21.944-21.944-12.104 0-21.952 9.848-21.952 21.944 0 8.84 5.264 16.784 13.408 20.232a6.354 6.354 0 0 1 3.376 8.328 6.374 6.374 0 0 1-5.864 3.888" fill="#474341" p-id="4943"></path><path d="M367.128 720.568a4.444 4.444 0 0 1-4.448-4.448V317.224a4.448 4.448 0 0 1 8.896 0v398.888a4.446 4.446 0 0 1-4.448 4.456" fill="#E9495B" p-id="4944"></path></svg>