<?xml version="1.0" standalone="no"?><!DOCTYPE svg PUBLIC "-//W3C//DTD SVG 1.1//EN" "http://www.w3.org/Graphics/SVG/1.1/DTD/svg11.dtd"><svg t="1615195145559" class="icon" viewBox="0 0 1024 1024" version="1.1" xmlns="http://www.w3.org/2000/svg" p-id="2162" width="200" height="200" xmlns:xlink="http://www.w3.org/1999/xlink"><defs><style type="text/css"></style></defs><path d="M512 0c282.770286 0 512 229.229714 512 512S794.770286 1024 512 1024 0 794.770286 0 512 229.229714 0 512 0z m153.131886 263.314286H372.9408c-24.020114 0-45.641143 14.511543-54.784 36.644571l-50.307657 124.050286a57.387886 57.387886 0 0 0-3.145143 34.889143l0.848457 3.306057a78.877257 78.877257 0 0 0 56.100572 54.901028l0.2048 0.043886v179.829029a60.708571 60.708571 0 0 0 56.1152 59.070171l3.028114 0.146286h276.187428a60.737829 60.737829 0 0 0 59.011658-62.507886l-0.014629-175.8208 0.658286-0.146286a78.848 78.848 0 0 0 56.334628-55.661714l0.789943-3.159771 0.672914-3.510857a57.5488 57.5488 0 0 0-3.832685-31.392915l-50.907429-123.991771A59.1872 59.1872 0 0 0 665.146514 263.314286z m-27.823543 229.463771l2.603886 2.881829a78.848 78.848 0 0 0 39.643428 22.586514l-2.794057-0.7168V693.686857a21.679543 21.679543 0 0 1-17.656686 22.762057l-2.048 0.292572H381.045029a21.679543 21.679543 0 0 1-19.704686-23.054629L361.325714 517.076114l3.613257-1.024a78.613943 78.613943 0 0 0 33.119086-20.333714l2.706286-2.940343a78.848 78.848 0 0 0 118.272 0l2.223543 2.428343a78.848 78.848 0 0 0 116.048457-2.428343z m27.823543-190.039771a19.719314 19.719314 0 0 1 18.344228 12.244114l51.243886 123.991771c1.521371 3.393829 1.9456 7.182629 1.184914 10.825143l-0.365714 2.486857a39.701943 39.701943 0 0 1-26.741029 30.734629l-1.477485 0.424229 1.097143 0.760685c4.242286 3.247543 7.153371 8.177371 7.694628 13.794743l0.087772 1.901714-0.014629 17.963886-2.311314 0.570514a78.555429 78.555429 0 0 1-34.304-0.190171l-2.808686-0.7168v-17.627429c0-6.407314 3.072-12.097829 7.797029-15.696457l1.082514-0.760685-0.950857-0.263315a39.701943 39.701943 0 0 1-27.838172-39.921371l0.2048-2.486857-0.087771-1.901715a19.748571 19.748571 0 0 0-39.380114 1.901715l-0.073143 2.486857a39.424 39.424 0 0 1-78.774857-2.486857l-0.087772-1.901715a19.719314 19.719314 0 0 0-39.336228 1.901715l-0.073143 2.486857a39.424 39.424 0 0 1-78.774857-2.486857l-0.087772-1.901715a19.719314 19.719314 0 0 0-39.336228 1.901715l0.146285 2.486857a39.5264 39.5264 0 0 1-28.964571 38.941257l-1.316572 0.3072 1.170286 0.658286c5.046857 3.1744 8.572343 8.572343 9.172114 14.833371l0.087772 1.901714-0.014629 17.173943-0.146285 0.043886c-5.076114 1.316571-10.283886 2.106514-15.579429 2.384457l-3.978971 0.1024a78.921143 78.921143 0 0 1-16.749715-1.755428l-3.013485-0.702172 0.014628-17.261714c0-7.036343 3.701029-13.224229 9.259886-16.720457l1.170286-0.672915-1.726172-0.438857a39.5264 39.5264 0 0 1-27.560228-29.783771l-0.438858-2.4576-0.3072-2.194286a17.744457 17.744457 0 0 1 1.462858-8.645486l50.863542-123.991771c3.042743-7.445943 10.313143-12.288 18.344229-12.244114z m31.349028 177.444571c-3.832686 0-7.416686 1.111771-10.459428 3.013486l-0.380343 0.248686 1.418971 0.394971a40.082286 40.082286 0 0 0 19.456-0.146286l0.804572-0.248685-0.380343-0.248686a19.602286 19.602286 0 0 0-8.557714-2.925714z m-354.889143-0.014628c-3.189029 0-6.217143 0.760686-8.894171 2.121142l-0.394971 0.2048 0.555885 0.146286c4.637257 1.067886 9.537829 1.301943 14.511543 0.585143l2.4576-0.438857 1.082514-0.277943-0.394971-0.219429a19.602286 19.602286 0 0 0-7.021714-2.033371z m256.248686-138.005943H440.188343a19.719314 19.719314 0 1 0 0 39.424h157.652114a19.719314 19.719314 0 1 0 0-39.424z" fill="#1B8CFE" p-id="2163"></path></svg>