<?xml version="1.0" standalone="no"?><!DOCTYPE svg PUBLIC "-//W3C//DTD SVG 1.1//EN" "http://www.w3.org/Graphics/SVG/1.1/DTD/svg11.dtd"><svg t="1615196399286" class="icon" viewBox="0 0 1024 1024" version="1.1" xmlns="http://www.w3.org/2000/svg" p-id="5254" xmlns:xlink="http://www.w3.org/1999/xlink" width="200" height="200"><defs><style type="text/css"></style></defs><path d="M512 1024C230.4 1024 0 793.6 0 512S230.4 0 512 0s512 230.4 512 512-230.4 512-512 512z" fill="#3AB394" p-id="5255"></path><path d="M1023.624 526.76v-29.52c-0.856-29.808-4.144-59.032-9.952-87.392l-195.568-126.488-555.08-6.76s-61.528-3.36-61.528 63.904-1.008 335.984-1.008 335.984l6.064 48.432 27.304 25.224L493.8 1023.536c6.056 0.216 12.096 0.464 18.2 0.464 276.648 0 503.72-222.416 511.624-497.24z" fill="#00875D" p-id="5256"></path><path d="M774.968 747.272H243.44c-21.992 0-39.984-17.992-39.984-39.984V324.352c0-21.992 17.992-39.984 39.984-39.984h531.52c21.992 0 39.984 17.992 39.984 39.984v382.936c0 21.992-17.992 39.984-39.976 39.984" fill="#E9E9EA" p-id="5257"></path><path d="M772.088 753.344H246.32c-26.976 0-48.936-21.952-48.936-48.936V327.232c0-26.984 21.96-48.944 48.936-48.944h525.76c26.976 0 48.936 21.96 48.936 48.944v377.176c0.008 26.984-21.952 48.936-48.928 48.936M246.32 290.448c-20.288 0-36.784 16.504-36.784 36.784v377.176c0 20.288 16.504 36.784 36.784 36.784h525.76c20.288 0 36.784-16.504 36.784-36.784V327.232c0-20.288-16.504-36.784-36.784-36.784H246.32z" fill="#474341" p-id="5258"></path><path d="M767.064 286.144H250.896c-23.144 0-42.08 18.128-42.08 40.28v26.888h600.328v-26.888c0-22.152-18.936-40.28-42.08-40.28" fill="#AEABAA" p-id="5259"></path><path d="M817.184 360.096h-0.016l-590.184-2.528a4.25 4.25 0 0 1 0.016-8.504h0.016l590.176 2.528a4.258 4.258 0 0 1 4.24 4.264 4.248 4.248 0 0 1-4.248 4.24" fill="#474341" p-id="5260"></path><path d="M259.896 319.728a10 10 0 1 1-20 0 10 10 0 1 1 20 0" fill="#E9495B" p-id="5261"></path><path d="M249.888 333.992c-7.856 0-14.248-6.4-14.248-14.256 0-7.864 6.392-14.256 14.248-14.256a14.268 14.268 0 0 1 14.256 14.256c0 7.856-6.392 14.256-14.256 14.256m0-20.016a5.752 5.752 0 0 0 0 11.504c3.168 0 5.752-2.576 5.752-5.752s-2.584-5.752-5.752-5.752" fill="#474341" p-id="5262"></path><path d="M306.328 319.728a10 10 0 1 1-20 0 10 10 0 1 1 20 0" fill="#F7BE15" p-id="5263"></path><path d="M296.328 333.992c-7.864 0-14.256-6.4-14.256-14.256 0-7.864 6.392-14.256 14.256-14.256s14.256 6.392 14.256 14.256c0 7.856-6.4 14.256-14.256 14.256m0-20.016a5.758 5.758 0 0 0-5.752 5.752c0 3.168 2.584 5.752 5.752 5.752s5.752-2.576 5.752-5.752a5.758 5.758 0 0 0-5.752-5.752" fill="#474341" p-id="5264"></path><path d="M352.76 319.728a10 10 0 1 1-20 0 10 10 0 1 1 20 0" fill="#92BE33" p-id="5265"></path><path d="M342.76 333.992c-7.864 0-14.256-6.4-14.256-14.256a14.268 14.268 0 0 1 14.256-14.256c7.856 0 14.248 6.392 14.248 14.256 0 7.856-6.392 14.256-14.248 14.256m0-20.016a5.758 5.758 0 0 0-5.752 5.752c0 3.168 2.584 5.752 5.752 5.752a5.752 5.752 0 0 0 0-11.504M687.424 704.376h-35.008a4.252 4.252 0 0 1 0-8.504h35.008c2.352 0 4.248 1.896 4.248 4.256a4.24 4.24 0 0 1-4.248 4.248M634.904 704.376h-46.688a4.252 4.252 0 1 1 0-8.504h46.688c2.352 0 4.248 1.896 4.248 4.256a4.24 4.24 0 0 1-4.248 4.248M382.024 705.448c-57.88 0-115.784-0.36-175.752-1.072a4.252 4.252 0 0 1-4.2-4.304c0.024-2.352 2-4.576 4.304-4.2 119.88 1.424 231.48 1.424 351.192 0h0.032a4.252 4.252 0 0 1 0.048 8.504c-59.88 0.712-117.744 1.072-175.624 1.072M366.336 688.664a4.246 4.246 0 0 1-4.248-4.248v-314.32a4.248 4.248 0 1 1 8.496 0v314.32a4.246 4.246 0 0 1-4.248 4.248" fill="#474341" p-id="5266"></path><path d="M572.08 390.096h197.168v117.152H572.08z" fill="#FDFBF8" p-id="5267"></path><path d="M769.232 511.504h-197.16l-4.256-4.248v-117.168l4.256-4.256h197.168l4.248 4.256v117.16l-4.256 4.256z m-192.912-8.512h188.656v-108.648H576.32v108.648z" fill="#474341" p-id="5268"></path><path d="M573.848 507.576c-1.48 0-2.928-0.776-3.704-2.168a4.27 4.27 0 0 1 1.624-5.8l192.88-108.224a4.264 4.264 0 0 1 5.792 1.624 4.258 4.258 0 0 1-1.624 5.792l-192.88 108.232a4.282 4.282 0 0 1-2.088 0.544M769.232 511.504c-0.728 0-1.464-0.184-2.136-0.576l-72.4-42.128a4.234 4.234 0 0 1-1.536-5.808 4.222 4.222 0 0 1 5.808-1.536l72.408 42.12a4.236 4.236 0 0 1 1.536 5.808 4.264 4.264 0 0 1-3.68 2.12" fill="#474341" p-id="5269"></path><path d="M670.136 453.848c-0.728 0-1.464-0.184-2.136-0.576l-97.36-56.64a4.242 4.242 0 0 1-1.536-5.808 4.23 4.23 0 0 1 5.808-1.536l97.36 56.64a4.236 4.236 0 0 1 1.536 5.808 4.224 4.224 0 0 1-3.672 2.112M532.776 404.344h-141.448a4.246 4.246 0 0 1-4.248-4.248c0-2.352 1.904-4.248 4.248-4.248h141.448c2.352 0 4.248 1.896 4.248 4.248s-1.896 4.248-4.248 4.248M505.632 440.064h-114.296a4.246 4.246 0 0 1-4.248-4.248 4.24 4.24 0 0 1 4.248-4.248h114.304a4.248 4.248 0 1 1-0.008 8.496M469.912 475.784h-78.584a4.246 4.246 0 0 1-4.248-4.248c0-2.352 1.904-4.248 4.248-4.248h78.584a4.24 4.24 0 0 1 4.248 4.248 4.24 4.24 0 0 1-4.248 4.248M330.616 407.2h-78.584a4.246 4.246 0 0 1-4.248-4.248c0-2.352 1.904-4.248 4.248-4.248h78.584a4.24 4.24 0 0 1 4.248 4.248 4.246 4.246 0 0 1-4.248 4.248" fill="#474341" p-id="5270"></path></svg>